<?xml version="1.0" standalone="no"?>
<!DOCTYPE svg PUBLIC "-//W3C//DTD SVG 20010904//EN"
 "http://www.w3.org/TR/2001/REC-SVG-20010904/DTD/svg10.dtd">
<svg version="1.0" xmlns="http://www.w3.org/2000/svg"
 width="512.000000pt" height="512.000000pt" viewBox="0 0 512.000000 512.000000"
 preserveAspectRatio="xMidYMid meet">
<metadata>
Created by potrace 1.14, written by Peter Selinger 2001-2017
</metadata>
<g transform="translate(0.000000,512.000000) scale(0.100000,-0.100000)"
fill="#000000" stroke="none">
<path d="M0 3019 c0 -1357 3 -2099 10 -2097 5 2 78 65 163 140 182 163 605
589 806 813 142 158 480 548 540 624 l31 39 -72 67 c-170 155 -368 193 -553
106 -125 -58 -201 -139 -302 -321 -50 -89 -62 -105 -83 -105 -24 0 -25 2 -23
60 3 112 63 225 184 343 114 113 242 180 394 207 111 19 167 19 262 -1 100
-20 197 -70 271 -139 l61 -56 238 268 c130 147 363 410 517 583 388 436 579
641 827 885 282 277 425 391 592 471 74 35 147 46 147 21 0 -7 -55 -48 -122
-89 -156 -97 -299 -221 -559 -484 -268 -271 -386 -399 -958 -1044 -261 -294
-506 -570 -544 -613 l-70 -78 31 -77 c75 -193 79 -376 12 -566 -16 -45 -28
-81 -27 -82 1 -1 40 27 87 62 83 63 323 191 531 283 l95 43 28 76 c178 486
443 934 822 1387 129 153 423 457 579 595 366 327 807 623 1125 756 l55 23
-2547 1 -2548 0 0 -2101z"/>
<path d="M4995 4972 c-289 -152 -583 -372 -869 -652 -378 -370 -636 -730 -948
-1325 -63 -121 -130 -254 -148 -295 -33 -75 -91 -242 -86 -248 3 -2 316 162
906 476 560 298 861 484 1122 695 56 45 112 90 125 100 l23 19 0 644 c0 354
-3 644 -7 644 -5 0 -57 -26 -118 -58z"/>
<path d="M5015 3549 c-268 -213 -558 -389 -1405 -852 -267 -145 -529 -289
-583 -318 -113 -62 -104 -46 -136 -260 -81 -537 -75 -1004 18 -1373 69 -272
196 -455 374 -540 90 -43 154 -56 267 -56 550 0 1185 543 1404 1201 137 412
70 752 -171 871 -56 27 -75 32 -141 31 -342 -2 -698 -420 -843 -990 -43 -171
-58 -272 -70 -468 -13 -222 -26 -290 -54 -290 -57 0 -108 247 -109 530 0 249
32 429 115 639 166 420 451 675 810 726 168 24 329 -29 446 -148 88 -90 160
-261 176 -422 2 -19 5 378 5 883 1 504 1 917 0 916 -2 0 -48 -37 -103 -80z"/>
<path d="M1450 2253 c-643 -731 -1114 -1225 -1357 -1423 l-92 -75 -1 -377 0
-378 1648 1 c1381 1 1635 3 1570 14 -206 35 -373 127 -529 293 -205 218 -319
531 -349 961 -19 266 23 669 87 839 9 23 13 45 10 48 -9 9 -405 -196 -497
-257 -47 -31 -113 -83 -147 -115 l-61 -59 -57 -170 c-95 -284 -180 -456 -267
-544 -120 -121 -257 -104 -289 37 -30 136 114 368 413 664 l139 137 25 98 c41
157 26 299 -47 451 -12 23 -24 42 -28 42 -3 0 -80 -84 -171 -187z"/>
<path d="M5110 1659 c0 -22 -9 -87 -21 -142 -79 -391 -340 -824 -660 -1091
-264 -222 -600 -377 -901 -414 -49 -6 204 -10 760 -11 l832 -1 0 850 c0 468
-2 850 -5 850 -3 0 -5 -18 -5 -41z"/>
</g>
</svg>
