<?xml version="1.0" encoding="utf-8"?>
<!-- Generator: Adobe Illustrator 16.0.0, SVG Export Plug-In . SVG Version: 6.00 Build 0)  -->
<!DOCTYPE svg PUBLIC "-//W3C//DTD SVG 1.1//EN" "http://www.w3.org/Graphics/SVG/1.1/DTD/svg11.dtd">
<svg version="1.1" id="Layer_1" xmlns="http://www.w3.org/2000/svg" xmlns:xlink="http://www.w3.org/1999/xlink" x="0px" y="0px"
	 width="75.6px" height="43.2px" viewBox="0 0 75.6 43.2" enable-background="new 0 0 75.6 43.2" xml:space="preserve">
<g>
	<g>
		<path d="M48.011,24.854c-0.803,0.362-3.188,1.568-3.805,1.984c-0.623,0.416-1.166,0.869-1.633,1.356
			c-0.621,2.058-1.213,3.56-1.781,4.515c-0.566,0.951-1.15,1.439-1.75,1.465c-0.346,0.016-0.614-0.076-0.804-0.275
			c-0.192-0.195-0.295-0.494-0.312-0.888c-0.024-0.555,0.335-1.347,1.081-2.378s1.756-2.115,3.035-3.247
			c0.17-0.444,0.291-0.854,0.363-1.224c0.07-0.371,0.096-0.72,0.082-1.047c-0.018-0.406-0.09-0.804-0.217-1.197
			c-0.131-0.393-0.303-0.773-0.523-1.139c-3.413,3.884-5.967,6.714-7.671,8.489c-1.703,1.777-3.112,3.106-4.223,3.988
			c-2.361,1.899-4.708,3.307-7.029,4.22c-2.325,0.913-4.841,1.428-7.548,1.546c-3.806,0.167-6.964-0.786-9.477-2.858
			c-2.507-2.07-3.839-4.799-3.987-8.189c-0.153-3.504,1.045-6.555,3.59-9.153c2.549-2.6,5.705-3.981,9.479-4.145
			c2.953-0.129,5.555,0.653,7.81,2.348c2.253,1.692,3.43,3.631,3.525,5.811c0.029,0.658-0.092,1.168-0.357,1.525
			c-0.265,0.356-0.663,0.546-1.196,0.569c-0.464,0.021-0.853-0.151-1.159-0.516c-0.305-0.363-0.468-0.841-0.494-1.438
			c-0.013-0.283,0.036-0.723,0.15-1.315c0.116-0.595,0.169-1.05,0.154-1.363c-0.061-1.396-0.767-2.519-2.106-3.373
			c-1.345-0.851-3.032-1.234-5.062-1.146c-3.27,0.142-6.076,1.549-8.417,4.221c-2.34,2.672-3.438,5.682-3.292,9.035
			c0.128,2.926,1.208,5.224,3.244,6.894s4.705,2.43,8.008,2.286c3.951-0.172,7.775-1.533,11.479-4.08
			c3.707-2.549,8.381-7.216,14.027-14c-0.531-0.6-1.064-1.035-1.598-1.306c-0.531-0.271-1.117-0.393-1.745-0.366
			c-1.563,0.068-2.793,1.03-3.691,2.887c-0.232,0.471-0.404,0.711-0.513,0.716c-0.08,0.003-0.14-0.015-0.181-0.052
			c-0.042-0.038-0.064-0.096-0.067-0.175c-0.043-0.983,0.452-1.965,1.483-2.946c1.032-0.981,2.248-1.504,3.652-1.565
			c0.757-0.033,1.435,0.075,2.03,0.325c0.596,0.252,1.158,0.664,1.688,1.24l6.65-7.487c2.734-3.078,4.969-5.396,6.697-6.957
			c1.729-1.562,2.977-2.226,3.68-2.391c0.344-0.083,0.877,0.012-0.037,0.487c0,0-1.143,0.682-1.541,1.007
			c-0.486,0.399-1.162,0.963-1.979,1.749c-1.551,1.494-3.596,3.669-6.143,6.522l-6.834,7.695c0.219,0.413,0.385,0.834,0.496,1.26
			c0.111,0.428,0.18,0.898,0.201,1.416c0.021,0.469-0.025,0.943-0.135,1.417c-0.111,0.476-0.285,0.968-0.527,1.481
			c0.516-0.479,1.109-0.912,1.775-1.3c0.67-0.388,3.092-1.545,3.932-1.842"/>
	</g>
	<g>
		<path d="M47.666,25.713c0.893-2.705,1.668-4.663,2.846-6.76c1.172-2.1,2.57-4.099,4.193-5.999
			c2.377-2.782,4.947-5.158,7.709-7.129c2.764-1.972,5.154-3.186,7.186-3.642c1.029-0.232,1.926-0.167,2.684,0.196
			c0.758,0.361,1.229,0.934,1.406,1.718c0.562,2.507-1.01,5.501-4.713,8.986c-3.707,3.485-9.463,6.208-17.412,10.631
			c-0.396,1.686-0.686,4.671-0.709,6.494c-0.025,1.825,0.139,3.51,0.486,5.056c0.422,1.867,1.174,3.199,2.268,3.992
			c1.094,0.791,2.453,1.004,4.088,0.635c1.275-0.287,2.514-0.846,3.709-1.682c1.195-0.832,2.281-1.88,3.256-3.147
			c1.033-1.375,1.781-2.819,2.24-4.332c0.459-1.515,0.564-2.813,0.318-3.903c-0.209-0.935-0.631-1.637-1.26-2.104
			c-0.633-0.468-1.352-0.614-2.148-0.433c-1.359,0.303-2.596,1.27-3.717,2.896c-1.123,1.625-1.885,3.594-2.287,5.901
			c-0.145,0.788-0.234,1.694-0.26,2.722c-0.027,1.028-0.133,1.56-0.318,1.603c-0.076,0.017-0.168-0.043-0.273-0.18
			c-0.104-0.137-0.178-0.319-0.232-0.55c-0.705-3.133-0.457-6.025,0.75-8.684c1.205-2.654,2.977-4.247,5.322-4.773
			c1.242-0.281,2.326-0.119,3.246,0.486c0.924,0.605,1.529,1.568,1.828,2.887c0.279,1.227,0.178,2.627-0.291,4.198
			c-0.467,1.571-1.256,3.108-2.35,4.612c-1.037,1.426-2.262,2.607-3.67,3.546c-1.414,0.938-2.932,1.589-4.564,1.957
			c-2.318,0.524-4.336,0.189-6.053-1.004c-1.713-1.19-2.855-3.062-3.428-5.606c-0.258-1.136-0.395-2.308-0.412-3.52
			c-0.016-1.213,0.082-2.49,0.297-3.826 M51.669,22.793c7.211-3.885,12.639-6.338,16.441-9.82c3.797-3.482,5.447-6.333,4.947-8.548
			c-0.156-0.707-0.529-1.204-1.111-1.495c-0.582-0.289-1.312-0.333-2.191-0.138c-1.752,0.397-3.855,1.533-6.303,3.41
			c-2.447,1.876-4.586,4.064-6.414,6.56c-1.297,1.779-2.51,3.785-3.457,5.666C52.966,19.651,52.169,20.855,51.669,22.793z"/>
	</g>
</g>
</svg>
