<?xml version="1.0" encoding="utf-8"?>
<!-- Generator: Adobe Illustrator 16.0.0, SVG Export Plug-In . SVG Version: 6.00 Build 0)  -->
<!DOCTYPE svg PUBLIC "-//W3C//DTD SVG 1.1//EN" "http://www.w3.org/Graphics/SVG/1.1/DTD/svg11.dtd">
<svg version="1.1" id="Layer_1" xmlns="http://www.w3.org/2000/svg" xmlns:xlink="http://www.w3.org/1999/xlink" x="0px" y="0px"
	 width="276px" height="183.333px" viewBox="0 0 276 183.333" enable-background="new 0 0 276 183.333" xml:space="preserve">
<g>
	<g>
		<path d="M12.241,173.31c-0.391,0.81-1.248,2.384-1.248,3.215c0,0.914,1.325,0.85,2.107,0.914v0.488
			c-0.962-0.021-1.9-0.062-2.862-0.084c-0.91,0.021-1.795,0.063-2.705,0.084v-0.488c1.404-0.127,1.977-0.468,2.496-1.512
			c0.729-1.362,1.432-2.703,2.16-4.065l3.98-8.363h0.885l5.255,10.812c0.312,0.553,0.883,1.852,1.352,2.342
			c0.573,0.616,1.353,0.701,2.238,0.787v0.488c-1.224-0.021-2.472-0.062-3.695-0.084c-1.248,0.021-2.522,0.063-3.772,0.084v-0.488
			c0.729-0.021,2.003,0.022,2.003-0.809c0-0.531-0.286-1.17-0.521-1.66l-1.015-2.192h-6.425L12.241,173.31z M18.562,172.097
			l-2.861-6.003l-2.888,6.003H18.562z"/>
		<path d="M32.881,170.383c0-0.51,0-1.691-0.194-2.123c-0.254-0.542-1.054-0.542-1.678-0.542v-0.367
			c0.936,0.015,1.853,0.047,2.789,0.064c0.996-0.018,1.971-0.05,2.966-0.064v0.367c-0.624,0-1.423,0-1.677,0.542
			c-0.195,0.432-0.195,1.613-0.195,2.123v4.725c0,2.044,0.389,2.379,2.868,2.379c0.917,0,1.97,0.032,2.771-0.399
			c0.975-0.495,1.092-1.102,1.269-1.994h0.487l-0.175,2.825c-0.333-0.018-0.684-0.031-1.015-0.063
			c-3.356,0.046-6.731,0.046-10.086,0.063v-0.367c0.624,0,1.424,0,1.678-0.542c0.194-0.432,0.194-1.613,0.194-2.125V170.383z"/>
		<path d="M48.88,170.383c0-0.51,0-1.691-0.194-2.123c-0.254-0.542-1.054-0.542-1.678-0.542v-0.367
			c0.936,0.015,1.853,0.047,2.789,0.064c0.996-0.018,1.972-0.05,2.966-0.064v0.367c-0.624,0-1.424,0-1.677,0.542
			c-0.195,0.432-0.195,1.613-0.195,2.123v4.725c0,2.044,0.389,2.379,2.868,2.379c0.917,0,1.97,0.032,2.77-0.399
			c0.976-0.495,1.092-1.102,1.269-1.994h0.487l-0.175,2.825c-0.333-0.018-0.684-0.031-1.015-0.063
			c-3.356,0.046-6.732,0.046-10.087,0.063v-0.367c0.624,0,1.424,0,1.678-0.542c0.194-0.432,0.194-1.613,0.194-2.125V170.383z"/>
		<path d="M65.015,170.383c0-0.51,0-1.691-0.195-2.123c-0.254-0.542-1.053-0.542-1.677-0.542v-0.367
			c0.936,0.015,1.872,0.047,2.808,0.064c0.996-0.018,1.971-0.05,2.947-0.064v0.367c-0.624,0-1.425,0-1.678,0.542
			c-0.195,0.432-0.195,1.613-0.195,2.123v4.501c0,0.512,0,1.693,0.195,2.125c0.253,0.542,1.054,0.542,1.678,0.542v0.367
			c-0.917-0.018-1.874-0.049-2.81-0.063c-0.976,0.015-1.97,0.046-2.945,0.063v-0.367c0.624,0,1.423,0,1.677-0.542
			c0.195-0.432,0.195-1.613,0.195-2.125V170.383z"/>
		<path d="M74.302,174.693h0.449c0.391,1.612,1.443,2.969,3.688,2.969c1.522,0,2.79-0.703,2.79-1.995
			c0-1.452-1.542-2.026-2.966-2.49c-1.775-0.56-3.667-1.325-3.667-3.145c0-1.82,1.736-2.874,3.862-2.874
			c1.073,0,2.068,0.303,2.946,0.813l0.449-0.621h0.215l0.098,2.762h-0.449c-0.449-1.325-1.366-2.522-3.259-2.522
			c-1.248,0-2.282,0.653-2.282,1.691c0,1.263,1.386,1.692,2.594,2.108c2.03,0.685,4.293,1.516,4.293,3.606s-2.38,3.098-4.663,3.098
			c-1.326,0-2.36-0.319-3.414-0.958l-0.469,0.669h-0.215V174.693z"/>
		<path d="M88.389,172.666c0-3.178,3.395-5.508,7.16-5.508c3.727,0,7.005,2.235,7.005,5.396c0,3.271-3.143,5.539-7.083,5.539
			C91.667,178.094,88.389,175.874,88.389,172.666z M90.829,172.666c0,2.506,1.208,4.996,4.761,4.996
			c3.471,0,4.525-2.666,4.525-5.045c0-2.395-1.21-5.027-4.644-5.027C92.095,167.59,90.829,170.303,90.829,172.666z"/>
		<path d="M109.927,168.675c-0.605-0.703-1.073-0.942-2.127-0.957v-0.367c0.625,0.015,1.229,0.047,1.854,0.064
			c0.506-0.018,1.033-0.05,1.541-0.064l8.232,8.221h0.038v-4.438c0-0.686,0-1.804-0.175-2.458c-0.233-0.893-0.761-0.83-1.735-0.957
			v-0.367c0.721,0.015,1.424,0.047,2.146,0.064c0.683-0.018,1.345-0.05,2.067-0.064v0.367c-0.723,0.064-1.23,0.015-1.484,0.701
			c-0.195,0.512-0.233,2.155-0.233,2.794v6.881h-0.586c-0.429-0.432-0.857-0.878-1.286-1.326l-7.629-7.565h-0.039v5.362
			c0,0.593,0,1.788,0.293,2.33c0.332,0.624,0.976,0.592,1.697,0.656v0.367c-0.741-0.018-1.502-0.049-2.244-0.063
			c-0.722,0.015-1.443,0.046-2.165,0.063v-0.367c0.761-0.064,1.482-0.096,1.678-0.783c0.156-0.574,0.156-1.58,0.156-2.203V168.675z"
			/>
		<path d="M142.125,163.902h0.391l0.21,4.191h-0.601c-0.44-2.361-2.47-4.021-5.488-4.021c-4.657,0-6.06,3.769-6.06,6.96
			c0,3.215,1.508,6.642,6.112,6.642c3.643,0,4.969-2.129,5.748-4.684h0.469v4.661h-0.338l-0.624-1.086
			c-1.744,1.128-3.511,1.598-5.751,1.598c-5.277,0-8.867-2.789-8.867-7.131c0-4.32,3.822-7.449,9.104-7.449
			c2.132,0,3.485,0.403,5.281,1.319L142.125,163.902z"/>
		<path d="M152.078,174.454c-0.295,0.606-0.937,1.787-0.937,2.41c0,0.687,0.994,0.637,1.58,0.687v0.367
			c-0.723-0.018-1.426-0.049-2.146-0.063c-0.683,0.015-1.348,0.046-2.03,0.063v-0.367c1.053-0.096,1.481-0.353,1.872-1.134
			c0.546-1.021,1.073-2.027,1.619-3.049l2.985-6.274h0.665l3.939,8.109c0.233,0.416,0.665,1.389,1.016,1.756
			c0.429,0.464,1.015,0.527,1.677,0.592v0.367c-0.916-0.018-1.853-0.049-2.771-0.063c-0.937,0.015-1.893,0.046-2.829,0.063v-0.367
			c0.549-0.018,1.502,0.015,1.502-0.606c0-0.399-0.213-0.878-0.388-1.245l-0.761-1.645h-4.82L152.078,174.454z M156.819,173.544
			l-2.146-4.502l-2.167,4.502H156.819z"/>
		<path d="M177.225,176.609c0.624,0.589,0.916,0.813,1.91,0.941v0.367c-0.583-0.018-1.169-0.049-1.755-0.063
			c-0.487,0.015-0.975,0.046-1.464,0.063L175,176.991l-3.239-3.288c-0.645-0.606-0.566-0.701-1.599-0.701v1.882
			c0,0.512,0,1.693,0.175,2.125c0.233,0.557,1.032,0.542,1.659,0.542v0.367c-0.897-0.018-1.816-0.049-2.752-0.063
			c-0.975,0.015-1.951,0.046-2.925,0.063v-0.367c0.623,0,1.443,0,1.656-0.542c0.175-0.432,0.175-1.613,0.175-2.125v-4.501
			c0-0.51,0-1.691-0.175-2.123c-0.213-0.56-1.033-0.542-1.656-0.542v-0.367c1.11,0.015,2.242,0.047,3.353,0.064
			c0.82-0.018,1.66-0.05,2.479-0.064c2.225,0,4.467,0.414,4.467,2.633c0,1.724-1.598,2.602-3.531,2.746L177.225,176.609z
			 M170.163,172.57c2.438,0,4.214-0.048,4.214-2.362c0-1.405-0.977-2.396-2.732-2.396c-0.233,0-1.094-0.048-1.269,0.017
			c-0.254,0.096-0.213,0.399-0.213,0.574V172.57z"/>
		<path d="M184.93,170.447c0-0.51,0-1.692-0.192-2.123c-0.254-0.542-1.056-0.542-1.68-0.542v-0.432h9.695v2.41h-0.446
			c-0.373-1.868-1.388-1.979-3.455-1.979h-1.402c-0.295,0-0.432-0.018-0.49,0.062c-0.038,0.064-0.018,0.24-0.018,0.591v3.783
			c2.671,0.095,3.062-0.814,3.179-1.964h0.449c-0.021,0.719-0.038,1.452-0.079,2.171c0.041,0.654,0.059,1.325,0.079,1.98h-0.449
			c-0.271-1.677-1.307-1.757-3.179-1.757v2.618c0,0.479,0,1.229,0.35,1.612c0.508,0.559,1.718,0.591,2.496,0.575
			c2.03-0.032,3.356-0.239,3.61-2.14h0.449l-0.175,2.571h-10.614v-0.368c0.624,0,1.426,0,1.68-0.542
			c0.192-0.432,0.192-1.612,0.192-2.123V170.447z"/>
		<path d="M201.105,168.675c-0.606-0.703-1.072-0.942-2.128-0.957v-0.367c0.627,0.015,1.23,0.047,1.854,0.064
			c0.507-0.018,1.035-0.05,1.542-0.064l8.232,8.221h0.038v-4.438c0-0.686,0-1.804-0.175-2.458c-0.233-0.893-0.762-0.83-1.735-0.957
			v-0.367c0.721,0.015,1.423,0.047,2.146,0.064c0.682-0.018,1.344-0.05,2.067-0.064v0.367c-0.724,0.064-1.23,0.015-1.484,0.701
			c-0.195,0.512-0.233,2.155-0.233,2.794v6.881h-0.586c-0.429-0.432-0.857-0.878-1.286-1.326l-7.629-7.565h-0.04v5.362
			c0,0.593,0,1.788,0.294,2.33c0.333,0.624,0.975,0.592,1.697,0.656v0.367c-0.74-0.018-1.502-0.049-2.245-0.063
			c-0.721,0.015-1.443,0.046-2.164,0.063v-0.367c0.762-0.064,1.481-0.096,1.677-0.783c0.157-0.574,0.157-1.58,0.157-2.203V168.675z"
			/>
		<path d="M227.971,177.887H217.96l7.474-10.104h-2.828c-2.108,0-3.24,0.143-3.59,2.123h-0.528l0.195-2.555h9.288l-7.433,10.104
			h3.295c2.558,0,3.377-0.304,3.901-2.475h0.528L227.971,177.887z"/>
		<path d="M235.97,174.454c-0.295,0.606-0.937,1.787-0.937,2.41c0,0.687,0.995,0.637,1.581,0.687v0.367
			c-0.724-0.018-1.426-0.049-2.146-0.063c-0.683,0.015-1.348,0.046-2.029,0.063v-0.367c1.053-0.096,1.481-0.353,1.872-1.134
			c0.545-1.021,1.073-2.027,1.618-3.049l2.986-6.274h0.665l3.939,8.109c0.233,0.416,0.665,1.389,1.015,1.756
			c0.429,0.464,1.015,0.527,1.677,0.592v0.367c-0.916-0.018-1.852-0.049-2.771-0.063c-0.936,0.015-1.893,0.046-2.828,0.063v-0.367
			c0.548-0.018,1.502,0.015,1.502-0.606c0-0.399-0.213-0.878-0.389-1.245l-0.761-1.645h-4.82L235.97,174.454z M240.711,173.544
			l-2.146-4.502l-2.167,4.502H240.711z"/>
	</g>
</g>
<g>
	<g>
		<path d="M176.209,89.453c-2.982,1.35-11.846,5.833-14.145,7.377c-2.312,1.549-4.336,3.229-6.066,5.044
			c-2.309,7.644-4.511,13.229-6.621,16.777c-2.108,3.534-4.277,5.352-6.506,5.445c-1.285,0.061-2.281-0.281-2.989-1.022
			c-0.712-0.729-1.096-1.837-1.159-3.3c-0.091-2.062,1.246-5.005,4.019-8.841c2.77-3.828,6.528-7.857,11.279-12.066
			c0.635-1.65,1.081-3.174,1.35-4.547c0.261-1.38,0.357-2.676,0.304-3.892c-0.063-1.51-0.331-2.987-0.806-4.45
			c-0.48-1.46-1.125-2.873-1.943-4.232c-12.683,14.435-22.177,24.955-28.511,31.554c-6.331,6.604-11.566,11.545-15.695,14.823
			c-8.776,7.062-17.499,12.29-26.128,15.685c-8.643,3.395-17.994,5.306-28.056,5.746c-14.145,0.618-25.884-2.923-35.222-10.624
			c-9.321-7.696-14.271-17.84-14.82-30.441C3.925,95.466,8.379,84.128,17.836,74.47c9.475-9.665,21.204-14.796,35.232-15.404
			c10.978-0.481,20.649,2.425,29.028,8.726c8.375,6.291,12.748,13.497,13.103,21.598c0.107,2.45-0.341,4.34-1.326,5.671
			c-0.986,1.325-2.466,2.03-4.447,2.117c-1.727,0.074-3.17-0.562-4.31-1.918c-1.133-1.349-1.741-3.127-1.834-5.349
			c-0.047-1.052,0.134-2.683,0.558-4.887c0.431-2.212,0.628-3.902,0.575-5.065c-0.228-5.188-2.85-9.36-7.831-12.537
			c-4.998-3.164-11.269-4.588-18.812-4.26C45.618,63.689,35.188,68.92,26.486,78.85c-8.7,9.932-12.779,21.12-12.234,33.581
			c0.475,10.878,4.487,19.417,12.057,25.624c7.57,6.207,17.486,9.029,29.766,8.495c14.687-0.638,28.898-5.696,42.669-15.163
			c13.778-9.475,31.149-26.82,52.133-52.036c-1.975-2.229-3.952-3.85-5.939-4.854c-1.975-1.005-4.146-1.46-6.481-1.359
			c-5.81,0.254-10.383,3.828-13.721,10.73c-0.861,1.75-1.5,2.639-1.907,2.659c-0.298,0.013-0.521-0.054-0.672-0.194
			c-0.157-0.141-0.237-0.354-0.247-0.647c-0.16-3.654,1.681-7.303,5.513-10.951c3.835-3.647,8.355-5.593,13.573-5.819
			c2.816-0.12,5.332,0.28,7.547,1.209c2.212,0.936,4.303,2.465,6.274,4.61l24.719-27.828c10.162-11.439,18.464-20.059,24.888-25.859
			c6.429-5.806,11.065-8.271,13.681-8.886c1.279-0.308,3.261,0.047-0.14,1.812c0,0-4.246,2.535-5.726,3.74
			c-1.812,1.484-4.323,3.582-7.354,6.502c-5.764,5.553-13.367,13.638-22.835,24.24L156.65,77.056c0.814,1.536,1.434,3.1,1.848,4.684
			c0.41,1.586,0.661,3.341,0.744,5.262c0.077,1.743-0.097,3.507-0.498,5.269c-0.414,1.767-1.065,3.598-1.963,5.505
			c1.914-1.78,4.122-3.388,6.598-4.83c2.495-1.44,11.495-5.743,14.619-6.846"/>
	</g>
	<g>
		<path d="M174.923,92.65c3.317-10.053,6.201-17.333,10.577-25.127c4.356-7.804,9.552-15.233,15.588-22.297
			c8.83-10.339,18.385-19.168,28.651-26.498c10.27-7.33,19.156-11.84,26.709-13.537c3.825-0.862,7.156-0.622,9.973,0.729
			c2.819,1.343,4.566,3.471,5.229,6.384c2.088,9.317-3.752,20.449-17.519,33.401c-13.778,12.952-35.172,23.074-64.719,39.515
			c-1.473,6.265-2.546,17.358-2.633,24.138c-0.101,6.781,0.515,13.046,1.801,18.788c1.574,6.942,4.37,11.894,8.437,14.84
			c4.062,2.94,9.113,3.735,15.19,2.359c4.744-1.065,9.344-3.141,13.787-6.247c4.443-3.095,8.476-6.989,12.101-11.7
			c3.842-5.111,6.621-10.479,8.328-16.103c1.704-5.626,2.095-10.457,1.187-14.506c-0.779-3.475-2.349-6.083-4.688-7.823
			c-2.352-1.741-5.021-2.286-7.981-1.61c-5.055,1.128-9.648,4.72-13.82,10.77c-4.169,6.04-7.006,13.354-8.503,21.933
			c-0.531,2.931-0.865,6.298-0.962,10.116c-0.1,3.821-0.494,5.797-1.187,5.957c-0.28,0.06-0.621-0.16-1.012-0.669
			c-0.384-0.508-0.665-1.189-0.861-2.044c-2.627-11.646-1.701-22.396,2.785-32.275c4.48-9.865,11.065-15.786,19.778-17.743
			c4.62-1.046,8.652-0.441,12.066,1.808c3.438,2.251,5.689,5.829,6.796,10.733c1.035,4.557,0.66,9.763-1.079,15.602
			c-1.738,5.84-4.667,11.553-8.737,17.146c-3.852,5.299-8.405,9.688-13.64,13.179c-5.252,3.485-10.897,5.907-16.965,7.272
			c-8.615,1.948-16.119,0.705-22.497-3.731c-6.371-4.426-10.61-11.382-12.738-20.84c-0.962-4.219-1.467-8.575-1.533-13.082
			c-0.061-4.507,0.308-9.251,1.103-14.219 M189.807,81.796c26.803-14.439,46.972-23.56,61.105-36.501
			c14.116-12.943,20.25-23.536,18.392-31.771c-0.581-2.626-1.971-4.474-4.129-5.556c-2.169-1.072-4.884-1.239-8.146-0.511
			c-6.515,1.477-14.328,5.699-23.425,12.675s-17.049,15.106-23.843,24.381c-4.818,6.611-9.328,14.067-12.853,21.061
			C194.625,70.116,191.665,74.593,189.807,81.796z"/>
	</g>
</g>
</svg>
