<?xml version="1.0" encoding="utf-8"?>
<!-- Generator: Adobe Illustrator 16.0.0, SVG Export Plug-In . SVG Version: 6.00 Build 0)  -->
<!DOCTYPE svg PUBLIC "-//W3C//DTD SVG 1.1//EN" "http://www.w3.org/Graphics/SVG/1.1/DTD/svg11.dtd">
<svg version="1.1" id="Layer_1" xmlns="http://www.w3.org/2000/svg" xmlns:xlink="http://www.w3.org/1999/xlink" x="0px" y="0px"
	 width="276px" height="183.333px" viewBox="0 0 276 183.333" enable-background="new 0 0 276 183.333" xml:space="preserve">
<g>
	<g>
		<path d="M9.755,172.779c-0.434,0.898-1.384,2.645-1.384,3.566c0,1.014,1.47,0.942,2.337,1.014v0.542
			c-1.067-0.023-2.107-0.069-3.175-0.094c-1.009,0.024-1.991,0.07-3,0.094v-0.542c1.558-0.141,2.193-0.519,2.769-1.677
			c0.809-1.511,1.588-2.998,2.396-4.51l4.415-9.276h0.981l5.829,11.992c0.346,0.613,0.98,2.054,1.5,2.598
			c0.636,0.684,1.5,0.777,2.482,0.873v0.542c-1.357-0.023-2.742-0.069-4.098-0.094c-1.384,0.024-2.798,0.07-4.184,0.094v-0.542
			c0.809-0.023,2.222,0.024,2.222-0.896c0-0.59-0.316-1.298-0.577-1.842l-1.126-2.432h-7.127L9.755,172.779z M16.766,171.435
			l-3.173-6.659l-3.204,6.659H16.766z"/>
		<path d="M32.649,169.533c0-0.565,0-1.876-0.215-2.354c-0.281-0.602-1.169-0.602-1.861-0.602v-0.407
			c1.038,0.017,2.055,0.052,3.094,0.071c1.104-0.02,2.187-0.055,3.29-0.071v0.407c-0.692,0-1.579,0-1.86,0.602
			c-0.217,0.479-0.217,1.789-0.217,2.354v5.24c0,2.268,0.432,2.639,3.181,2.639c1.018,0,2.185,0.036,3.073-0.442
			c1.082-0.55,1.211-1.222,1.407-2.212h0.54l-0.194,3.134c-0.369-0.02-0.759-0.035-1.126-0.071
			c-3.723,0.052-7.467,0.052-11.188,0.071v-0.407c0.692,0,1.58,0,1.861-0.602c0.215-0.479,0.215-1.789,0.215-2.357V169.533z"/>
		<path d="M50.396,169.533c0-0.565,0-1.876-0.215-2.354c-0.282-0.602-1.169-0.602-1.861-0.602v-0.407
			c1.038,0.017,2.055,0.052,3.094,0.071c1.104-0.02,2.187-0.055,3.29-0.071v0.407c-0.692,0-1.58,0-1.86,0.602
			c-0.217,0.479-0.217,1.789-0.217,2.354v5.24c0,2.268,0.432,2.639,3.182,2.639c1.017,0,2.185,0.036,3.072-0.442
			c1.082-0.55,1.211-1.222,1.407-2.212h0.54l-0.194,3.134c-0.369-0.02-0.758-0.035-1.125-0.071
			c-3.723,0.052-7.467,0.052-11.188,0.071v-0.407c0.692,0,1.58,0,1.861-0.602c0.215-0.479,0.215-1.789,0.215-2.357V169.533z"/>
		<path d="M68.292,169.533c0-0.565,0-1.876-0.217-2.354c-0.282-0.602-1.167-0.602-1.86-0.602v-0.407
			c1.039,0.017,2.077,0.052,3.115,0.071c1.105-0.02,2.187-0.055,3.269-0.071v0.407c-0.692,0-1.58,0-1.861,0.602
			c-0.217,0.479-0.217,1.789-0.217,2.354v4.992c0,0.568,0,1.879,0.217,2.357c0.281,0.602,1.169,0.602,1.861,0.602v0.407
			c-1.017-0.02-2.078-0.055-3.116-0.071c-1.082,0.017-2.185,0.052-3.267,0.071v-0.407c0.692,0,1.578,0,1.86-0.602
			c0.217-0.479,0.217-1.789,0.217-2.357V169.533z"/>
		<path d="M78.593,174.314h0.498c0.434,1.788,1.601,3.293,4.09,3.293c1.688,0,3.095-0.78,3.095-2.213c0-1.61-1.71-2.248-3.29-2.763
			c-1.97-0.62-4.067-1.47-4.067-3.487c0-2.02,1.926-3.188,4.284-3.188c1.19,0,2.294,0.336,3.268,0.902l0.499-0.688h0.238
			l0.108,3.063h-0.498c-0.498-1.47-1.516-2.798-3.615-2.798c-1.384,0-2.531,0.725-2.531,1.876c0,1.4,1.537,1.877,2.877,2.339
			c2.252,0.759,4.762,1.681,4.762,4s-2.64,3.436-5.172,3.436c-1.471,0-2.618-0.354-3.787-1.062l-0.52,0.742h-0.238V174.314z"/>
		<path d="M94.218,172.065c0-3.524,3.765-6.109,7.942-6.109c4.134,0,7.77,2.479,7.77,5.986c0,3.629-3.486,6.144-7.856,6.144
			C97.854,178.086,94.218,175.624,94.218,172.065z M96.924,172.065c0,2.78,1.34,5.542,5.28,5.542c3.85,0,5.02-2.957,5.02-5.596
			c0-2.656-1.342-5.576-5.15-5.576C98.329,166.436,96.924,169.444,96.924,172.065z"/>
		<path d="M118.108,167.639c-0.672-0.78-1.19-1.045-2.359-1.062v-0.407c0.693,0.017,1.363,0.052,2.057,0.071
			c0.561-0.02,1.146-0.055,1.709-0.071l9.131,9.118h0.042v-4.923c0-0.761,0-2.001-0.194-2.727c-0.259-0.99-0.844-0.921-1.925-1.062
			v-0.407c0.799,0.017,1.579,0.052,2.381,0.071c0.757-0.02,1.492-0.055,2.293-0.071v0.407c-0.801,0.071-1.365,0.017-1.646,0.777
			c-0.216,0.568-0.259,2.391-0.259,3.1v7.632h-0.65c-0.476-0.479-0.951-0.974-1.427-1.471l-8.462-8.392h-0.043v5.948
			c0,0.657,0,1.983,0.325,2.584c0.368,0.692,1.082,0.656,1.883,0.729v0.407c-0.822-0.02-1.666-0.055-2.489-0.071
			c-0.801,0.017-1.601,0.052-2.401,0.071v-0.407c0.844-0.072,1.644-0.106,1.861-0.869c0.173-0.637,0.173-1.753,0.173-2.443V167.639z
			"/>
		<path d="M153.822,162.345h0.433l0.233,4.649h-0.666c-0.489-2.619-2.74-4.461-6.088-4.461c-5.166,0-6.722,4.181-6.722,7.721
			c0,3.565,1.673,7.366,6.78,7.366c4.04,0,5.511-2.361,6.376-5.194h0.52v5.17h-0.375l-0.692-1.205
			c-1.935,1.251-3.894,1.772-6.379,1.772c-5.854,0-9.835-3.094-9.835-7.909c0-4.792,4.239-8.263,10.098-8.263
			c2.364,0,3.865,0.447,5.857,1.463L153.822,162.345z"/>
		<path d="M164.861,174.049c-0.327,0.673-1.038,1.982-1.038,2.674c0,0.762,1.103,0.706,1.752,0.762v0.407
			c-0.801-0.02-1.581-0.055-2.379-0.071c-0.758,0.017-1.495,0.052-2.252,0.071v-0.407c1.167-0.106,1.643-0.392,2.076-1.258
			c0.605-1.133,1.19-2.249,1.796-3.382l3.312-6.96h0.737l4.37,8.995c0.259,0.462,0.737,1.54,1.126,1.947
			c0.476,0.515,1.126,0.585,1.86,0.657v0.407c-1.017-0.02-2.056-0.055-3.073-0.071c-1.039,0.017-2.1,0.052-3.139,0.071v-0.407
			c0.609-0.02,1.666,0.016,1.666-0.673c0-0.443-0.235-0.974-0.43-1.382l-0.844-1.823h-5.347L164.861,174.049z M170.121,173.039
			l-2.381-4.993l-2.404,4.993H170.121z"/>
		<path d="M192.754,176.439c0.692,0.653,1.017,0.902,2.119,1.045v0.407c-0.646-0.02-1.297-0.055-1.946-0.071
			c-0.541,0.017-1.081,0.052-1.624,0.071l-1.016-1.028l-3.594-3.647c-0.715-0.673-0.628-0.777-1.772-0.777v2.087
			c0,0.568,0,1.879,0.193,2.357c0.259,0.617,1.146,0.602,1.841,0.602v0.407c-0.996-0.02-2.015-0.055-3.053-0.071
			c-1.081,0.017-2.164,0.052-3.244,0.071v-0.407c0.691,0,1.601,0,1.837-0.602c0.194-0.479,0.194-1.789,0.194-2.357v-4.992
			c0-0.565,0-1.876-0.194-2.354c-0.236-0.621-1.146-0.602-1.837-0.602v-0.407c1.231,0.017,2.487,0.052,3.719,0.071
			c0.91-0.02,1.842-0.055,2.75-0.071c2.468,0,4.955,0.459,4.955,2.92c0,1.912-1.772,2.886-3.917,3.046L192.754,176.439z
			 M184.921,171.96c2.704,0,4.674-0.054,4.674-2.62c0-1.56-1.083-2.657-3.031-2.657c-0.259,0-1.213-0.054-1.407,0.018
			c-0.281,0.106-0.235,0.443-0.235,0.638V171.96z"/>
		<path d="M201.301,169.604c0-0.565,0-1.877-0.214-2.354c-0.281-0.602-1.171-0.602-1.862-0.602v-0.479h10.754v2.673h-0.495
			c-0.414-2.071-1.539-2.194-3.833-2.194h-1.555c-0.327,0-0.479-0.02-0.544,0.069c-0.042,0.071-0.02,0.267-0.02,0.655v4.196
			c2.963,0.105,3.396-0.903,3.525-2.178h0.499c-0.023,0.797-0.043,1.61-0.088,2.407c0.045,0.727,0.064,1.471,0.088,2.197h-0.499
			c-0.301-1.86-1.449-1.949-3.525-1.949v2.904c0,0.531,0,1.364,0.388,1.789c0.563,0.619,1.905,0.655,2.769,0.638
			c2.252-0.036,3.723-0.266,4.005-2.373h0.498l-0.194,2.852h-11.772v-0.408c0.691,0,1.581,0,1.862-0.602
			c0.214-0.479,0.214-1.788,0.214-2.354V169.604z"/>
		<path d="M219.243,167.639c-0.673-0.78-1.189-1.045-2.36-1.062v-0.407c0.695,0.017,1.364,0.052,2.057,0.071
			c0.562-0.02,1.148-0.055,1.71-0.071l9.132,9.118h0.042v-4.923c0-0.761,0-2.001-0.193-2.727c-0.26-0.99-0.846-0.921-1.925-1.062
			v-0.407c0.799,0.017,1.578,0.052,2.381,0.071c0.756-0.02,1.49-0.055,2.293-0.071v0.407c-0.803,0.071-1.365,0.017-1.646,0.777
			c-0.217,0.568-0.259,2.391-0.259,3.1v7.632h-0.65c-0.476-0.479-0.951-0.974-1.427-1.471l-8.462-8.392h-0.044v5.948
			c0,0.657,0,1.983,0.326,2.584c0.369,0.692,1.081,0.656,1.882,0.729v0.407c-0.82-0.02-1.665-0.055-2.49-0.071
			c-0.799,0.017-1.601,0.052-2.4,0.071v-0.407c0.846-0.072,1.644-0.106,1.86-0.869c0.175-0.637,0.175-1.753,0.175-2.443V167.639z"/>
		<path d="M249.042,177.856h-11.104l8.29-11.208h-3.137c-2.339,0-3.595,0.158-3.982,2.355h-0.586l0.217-2.834h10.303l-8.244,11.208
			h3.654c2.837,0,3.746-0.337,4.327-2.745h0.586L249.042,177.856z"/>
		<path d="M257.915,174.049c-0.327,0.673-1.039,1.982-1.039,2.674c0,0.762,1.104,0.706,1.754,0.762v0.407
			c-0.803-0.02-1.581-0.055-2.381-0.071c-0.757,0.017-1.495,0.052-2.251,0.071v-0.407c1.168-0.106,1.644-0.392,2.077-1.258
			c0.604-1.133,1.19-2.249,1.795-3.382l3.312-6.96h0.738l4.369,8.995c0.259,0.462,0.738,1.54,1.126,1.947
			c0.476,0.515,1.125,0.585,1.859,0.657v0.407c-1.016-0.02-2.054-0.055-3.073-0.071c-1.037,0.017-2.099,0.052-3.137,0.071v-0.407
			c0.607-0.02,1.666,0.016,1.666-0.673c0-0.443-0.236-0.974-0.431-1.382l-0.844-1.823h-5.347L257.915,174.049z M263.173,173.039
			l-2.38-4.993l-2.403,4.993H263.173z"/>
	</g>
</g>
<g>
	<g>
		<path d="M176.209,89.453c-2.982,1.35-11.846,5.833-14.145,7.377c-2.312,1.549-4.336,3.229-6.066,5.044
			c-2.309,7.644-4.511,13.229-6.621,16.777c-2.108,3.534-4.277,5.352-6.506,5.445c-1.285,0.061-2.281-0.281-2.989-1.022
			c-0.712-0.729-1.096-1.837-1.159-3.3c-0.091-2.062,1.246-5.005,4.019-8.841c2.77-3.828,6.528-7.857,11.279-12.066
			c0.635-1.65,1.081-3.174,1.35-4.547c0.261-1.38,0.357-2.676,0.304-3.892c-0.063-1.51-0.331-2.987-0.806-4.45
			c-0.48-1.46-1.125-2.873-1.943-4.232c-12.683,14.435-22.177,24.955-28.511,31.554c-6.331,6.604-11.566,11.545-15.695,14.823
			c-8.776,7.062-17.499,12.29-26.128,15.685c-8.643,3.395-17.994,5.306-28.056,5.746c-14.145,0.618-25.884-2.923-35.222-10.624
			c-9.321-7.696-14.271-17.84-14.82-30.441C3.925,95.466,8.379,84.128,17.836,74.47c9.475-9.665,21.204-14.796,35.232-15.404
			c10.978-0.481,20.649,2.425,29.028,8.726c8.375,6.291,12.748,13.497,13.103,21.598c0.107,2.45-0.341,4.34-1.326,5.671
			c-0.986,1.325-2.466,2.03-4.447,2.117c-1.727,0.074-3.17-0.562-4.31-1.918c-1.133-1.349-1.741-3.127-1.834-5.349
			c-0.047-1.052,0.134-2.683,0.558-4.887c0.431-2.212,0.628-3.902,0.575-5.065c-0.228-5.188-2.85-9.36-7.831-12.537
			c-4.998-3.164-11.269-4.588-18.812-4.26C45.618,63.689,35.188,68.92,26.486,78.85c-8.7,9.932-12.779,21.12-12.234,33.581
			c0.475,10.878,4.487,19.417,12.057,25.624c7.57,6.207,17.486,9.029,29.766,8.495c14.687-0.638,28.898-5.696,42.669-15.163
			c13.778-9.475,31.149-26.82,52.133-52.036c-1.975-2.229-3.952-3.85-5.939-4.854c-1.975-1.005-4.146-1.46-6.481-1.359
			c-5.81,0.254-10.383,3.828-13.721,10.73c-0.861,1.75-1.5,2.639-1.907,2.659c-0.298,0.013-0.521-0.054-0.672-0.194
			c-0.157-0.141-0.237-0.354-0.247-0.647c-0.16-3.654,1.681-7.303,5.513-10.951c3.835-3.647,8.355-5.593,13.573-5.819
			c2.816-0.12,5.332,0.28,7.547,1.209c2.212,0.936,4.303,2.465,6.274,4.61l24.719-27.828c10.162-11.439,18.464-20.059,24.888-25.859
			c6.429-5.806,11.065-8.271,13.681-8.886c1.279-0.308,3.261,0.047-0.14,1.812c0,0-4.246,2.535-5.726,3.74
			c-1.812,1.484-4.323,3.582-7.354,6.502c-5.764,5.553-13.367,13.638-22.835,24.24L156.65,77.056c0.814,1.536,1.434,3.1,1.848,4.684
			c0.41,1.586,0.661,3.341,0.744,5.262c0.077,1.743-0.097,3.507-0.498,5.269c-0.414,1.767-1.065,3.598-1.963,5.505
			c1.914-1.78,4.122-3.388,6.598-4.83c2.495-1.44,11.495-5.743,14.619-6.846"/>
	</g>
	<g>
		<path d="M174.923,92.65c3.317-10.053,6.201-17.333,10.577-25.127c4.356-7.804,9.552-15.233,15.588-22.297
			c8.83-10.339,18.385-19.168,28.651-26.498c10.27-7.33,19.156-11.84,26.709-13.537c3.825-0.862,7.156-0.622,9.973,0.729
			c2.819,1.343,4.566,3.471,5.229,6.384c2.088,9.317-3.752,20.449-17.519,33.401c-13.778,12.952-35.172,23.074-64.719,39.515
			c-1.473,6.265-2.546,17.358-2.633,24.138c-0.101,6.781,0.515,13.046,1.801,18.788c1.574,6.942,4.37,11.894,8.437,14.84
			c4.062,2.94,9.113,3.735,15.19,2.359c4.744-1.065,9.344-3.141,13.787-6.247c4.443-3.095,8.476-6.989,12.101-11.7
			c3.842-5.111,6.621-10.479,8.328-16.103c1.704-5.626,2.095-10.457,1.187-14.506c-0.779-3.475-2.349-6.083-4.688-7.823
			c-2.352-1.741-5.021-2.286-7.981-1.61c-5.055,1.128-9.648,4.72-13.82,10.77c-4.169,6.04-7.006,13.354-8.503,21.933
			c-0.531,2.931-0.865,6.298-0.962,10.116c-0.1,3.821-0.494,5.797-1.187,5.957c-0.28,0.06-0.621-0.16-1.012-0.669
			c-0.384-0.508-0.665-1.189-0.861-2.044c-2.627-11.646-1.701-22.396,2.785-32.275c4.48-9.865,11.065-15.786,19.778-17.743
			c4.62-1.046,8.652-0.441,12.066,1.808c3.438,2.251,5.689,5.829,6.796,10.733c1.035,4.557,0.66,9.763-1.079,15.602
			c-1.738,5.84-4.667,11.553-8.737,17.146c-3.852,5.299-8.405,9.688-13.64,13.179c-5.252,3.485-10.897,5.907-16.965,7.272
			c-8.615,1.948-16.119,0.705-22.497-3.731c-6.371-4.426-10.61-11.382-12.738-20.84c-0.962-4.219-1.467-8.575-1.533-13.082
			c-0.061-4.507,0.308-9.251,1.103-14.219 M189.807,81.796c26.803-14.439,46.972-23.56,61.105-36.501
			c14.116-12.943,20.25-23.536,18.392-31.771c-0.581-2.626-1.971-4.474-4.129-5.556c-2.169-1.072-4.884-1.239-8.146-0.511
			c-6.515,1.477-14.328,5.699-23.425,12.675s-17.049,15.106-23.843,24.381c-4.818,6.611-9.328,14.067-12.853,21.061
			C194.625,70.116,191.665,74.593,189.807,81.796z"/>
	</g>
</g>
</svg>
